<?xml version="1.0" encoding="UTF-8" standalone="no"?>
<svg
   xmlns:dc="http://purl.org/dc/elements/1.1/"
   xmlns:cc="http://creativecommons.org/ns#"
   xmlns:rdf="http://www.w3.org/1999/02/22-rdf-syntax-ns#"
   xmlns:svg="http://www.w3.org/2000/svg"
   xmlns="http://www.w3.org/2000/svg"
   xmlns:sodipodi="http://sodipodi.sourceforge.net/DTD/sodipodi-0.dtd"
   xmlns:inkscape="http://www.inkscape.org/namespaces/inkscape"
   id="svg7290"
   version="1.1"
   viewBox="0 0 220 220"
   height="220mm"
   width="220mm"
   inkscape:version="1.0 (4035a4fb49, 2020-05-01)"
   sodipodi:docname="DRAGONfly.svg">
  <defs
     id="defs7284" />
  <sodipodi:namedview
     inkscape:window-maximized="1"
     inkscape:window-y="370"
     inkscape:window-x="-9"
     inkscape:window-height="894"
     inkscape:window-width="1708"
     showgrid="false"
     inkscape:document-rotation="0"
     inkscape:current-layer="svg7290"
     inkscape:document-units="mm"
     inkscape:cy="585.75196"
     inkscape:cx="377.15177"
     inkscape:zoom="2"
     inkscape:pageshadow="2"
     inkscape:pageopacity="0.0"
     borderopacity="1.0"
     bordercolor="#666666"
     pagecolor="#ffffff"
     id="base" />
  <metadata
     id="metadata7287">
    <rdf:RDF>
      <cc:Work
         rdf:about="">
        <dc:format>image/svg+xml</dc:format>
        <dc:type
           rdf:resource="http://purl.org/dc/dcmitype/StillImage" />
        <dc:title></dc:title>
      </cc:Work>
    </rdf:RDF>
  </metadata>
  <g
     id="layer1"
     inkscape:groupmode="layer"
     inkscape:label="Layer 1" />
  <g
     inkscape:label="Layer 2"
     id="layer3"
     inkscape:groupmode="layer" />
  <g
     gcodetools="Gcodetools orientation group"
     id="g7914">
    <g
       gcodetools="Gcodetools orientation point (2 points)"
       id="g7906">
      <path
         style="stroke:none;fill:#000000;"
         d="m 0.0,220.0 2.9375,-6.343750000001 0.8125,1.90625 6.843748640396,-6.84374864039 0,0 0.6875,0.6875 -6.84375,6.84375 1.90625,0.812500000001 z z"
         gcodetools="Gcodetools orientation point arrow"
         id="path7902" />
      <text
         style="font-size:10px;font-style:normal;font-variant:normal;font-weight:normal;font-stretch:normal;fill:#000000;fill-opacity:1;stroke:none;"
         xml:space="preserve"
         x="10.0"
         y="210.0"
         gcodetools="Gcodetools orientation point text"
         id="text7904">(0.0; 0.0; 0.0)</text>
    </g>
    <g
       gcodetools="Gcodetools orientation point (2 points)"
       id="g7912">
      <path
         style="stroke:none;fill:#000000;"
         d="m 100.0,220.0 2.9375,-6.343750000001 0.8125,1.90625 6.843748640396,-6.84374864039 0,0 0.6875,0.6875 -6.84375,6.84375 1.90625,0.812500000001 z z"
         gcodetools="Gcodetools orientation point arrow"
         id="path7908" />
      <text
         style="font-size:10px;font-style:normal;font-variant:normal;font-weight:normal;font-stretch:normal;fill:#000000;fill-opacity:1;stroke:none;"
         xml:space="preserve"
         x="110.0"
         y="210.0"
         gcodetools="Gcodetools orientation point text"
         id="text7910">(100.0; 0.0; 0.0)</text>
    </g>
  </g>
  <defs
     id="defs7953">
    <marker
       id="DrawCurveMarker"
       orient="auto"
       refX="-8"
       refY="-2.41063"
       style="overflow:visible">
      <path
         d="m -6.55552,-2.41063 0,0 L -13.11104,0 c 1.0473,-1.42323 1.04126,-3.37047 0,-4.82126"
         style="fill:#000044; fill-rule:evenodd;stroke-width:0.62500000;stroke-linejoin:round;"
         id="path7950" />
    </marker>
  </defs>
  <defs
     id="defs7958">
    <marker
       id="DrawCurveMarker_r"
       orient="auto"
       refX="8"
       refY="-2.41063"
       style="overflow:visible">
      <path
         d="m 6.55552,-2.41063 0,0 L 13.11104,0 c -1.0473,-1.42323 -1.04126,-3.37047 0,-4.82126"
         style="fill:#000044; fill-rule:evenodd;stroke-width:0.62500000;stroke-linejoin:round;"
         id="path7955" />
    </marker>
  </defs>
  <g
     transform="translate(19.711425,-6.2177087)"
     id="g9132">
    <path
       d="M 112.0762,48.286513 H 48.894202 l -0.182607,7.12167 c -1.771884,0.04789 -7.068902,-1.172712 -7.555854,-3.363994 -0.486953,-2.191283 -0.444755,-5.625047 -0.248821,-6.379524 0.515147,-1.983662 4.456881,-3.343312 4.456881,-3.343312 0,0 7.290452,1.175501 9.298204,1.677441 2.434759,0.608691 15.747843,1.787628 15.747843,1.787628 0,0 0.275447,-2.369427 2.101516,-3.221593 1.826069,-0.852165 -0.60869,-1.947807 -0.60869,-1.947807 0,0 -0.730427,-3.286924 0.486952,-4.504304 1.217379,-1.217379 4.504304,-2.799973 6.452112,-2.678235 5.599946,-0.852165 7.426016,2.313022 8.643391,3.530401 1.217381,1.217379 0,3.652138 0,3.652138 0,0 -2.434757,1.095642 -0.608688,1.947807 1.826069,0.852166 1.929959,3.103149 1.929959,3.103149 0,0 13.67173,-1.154036 16.10649,-1.762728 2.00775,-0.50194 9.11111,-1.583897 9.11111,-1.583897 l 4.87646,2.594958 c 0,0 3.57543,11.172656 -6.33731,10.552741 z m -23.950845,5.15087 c -1.360226,5.196682 -4.901052,5.318594 -4.901052,5.318594 v 26.173659 c 0,0 0.852165,9.252091 -1.582592,9.495562 V 50.599534 h 28.364939 l 0.18261,4.808649 c 0,0 -21.67155,-3.469774 -22.063905,-1.9708 z M 51.207265,50.599534 77.6244,50.477797 V 94.425198 C 75.189601,94.181727 76.163502,84.929636 76.163502,84.929636 L 75.648823,58.721665 c 0,0 -1.599056,-0.109521 -2.694696,-1.205162 -1.095642,-1.095641 -2.472364,-4.975747 -2.472364,-4.975747 0,0 -13.792501,1.536763 -19.265398,2.481106 z"
       style="fill:none;stroke:#000000;stroke-width:0.172163px;stroke-linecap:butt;stroke-linejoin:miter;stroke-opacity:1"
       id="path9098" />
    <path
       style="fill:none;stroke:#000000;stroke-width:0.172163px"
       d="m 40.88309,46.333496 v 2.660872 m 1.322916,4.098467 v -8.799213 m 1.322917,-0.850189 v 10.456472 m 1.322916,0.519922 V 42.805109 m 1.322917,-0.08012 v 12.069147 m 1.322917,0.25516 V 42.945861 m 1.322916,0.220869 v 4.854256 m 1.322917,9.44e-4 v -4.623804 m 1.322916,0.235867 v 4.387937 m 0,6.692718 v -3.851722 m 1.322917,-6.985295 v 4.144299 m 0,6.484427 V 50.85683 m 1.322916,-6.708815 v 3.873914 m 0,6.285569 v -3.456764 m 1.322917,-6.431332 v 3.602527 m 0,6.100572 v -3.277864 m 1.322916,-6.230248 v 3.40754 m 0,5.918086 V 50.83854 m 1.322917,-6.045928 v 3.229318 m 0,5.745962 v -2.935448 m 1.322916,-5.885968 v 3.075454 m 0,5.573839 v -2.769421 m 1.322917,-5.727105 v 2.922687 m 0,5.408153 v -2.609831 m 1.322916,-5.5812 v 2.782878 m 0,5.244194 v -2.451969 m 1.322917,-5.435294 v 2.643068 m 0,5.083085 v -2.296956 m 1.322916,-5.299892 v 2.513764 m 0,4.926619 v -2.146587 m 1.322917,-5.164901 v 2.384869 m 0,4.770154 v -1.996218 m 1.322916,-5.02991 v 2.255973 m 0,4.61369 V 50.78977 m 1.322917,-4.897295 v 2.129455 m 0,4.459274 v -1.697531 m 1.322916,-4.770212 v 2.008468 m 0,4.308789 v -1.553141 m 1.322917,-6.791389 v 4.035741 m 0,6.330582 v -3.58103 m 1.322916,-14.523349 v 4.46954 m 0,7.304258 v -5.222075 m 0,7.965529 v 5.925703 M 73.956003,48.02193 V 35.286343 m 0,15.472945 v 7.171146 M 75.278919,48.02193 V 34.595076 m 0,16.158116 v 7.644431 M 76.601836,48.02193 V 34.075837 m 0,16.671258 V 93.190053 M 77.924752,48.02193 V 33.753089 m 1.322917,-0.105636 v 14.374476 m 1.322916,10e-7 V 33.558062 m 1.322917,0.09107 V 48.02193 m 0,46.043797 V 50.864117 M 83.216418,33.958933 V 48.02193 m 0,42.171422 V 50.864118 m 1.322917,-16.289911 v 13.447722 m 0,10.069992 V 50.864117 M 85.862251,35.60438 v 12.41755 m 0,9.131259 v -6.289072 m 1.322917,-13.834969 v 3.446404 m 0,7.546378 v -5.008983 m 0,7.85117 v 4.376692 m 1.322916,-7.218879 v -3.317754 m 0,6.159941 v 2.061431 m 1.322917,-4.903618 v -2.177817 m 0,5.020004 v 1.936956 m 1.322916,-4.779143 v -2.294213 m 0,5.1364 v 1.963532 m 1.322917,-4.805719 v -2.417628 m 0,5.259815 v 2.035219 M 93.79975,48.02193 v -2.541043 m 0,5.38323 v 2.135815 m 1.322917,-4.978002 v -2.664458 m 0,5.506645 v 2.257972 m 1.322916,-5.100159 v -2.79179 m 0,5.633977 V 53.26212 M 97.7685,48.02193 v -2.926152 m 0,5.768339 v 2.546405 m 1.322916,-5.388592 v -3.063734 m 0,5.905921 v 2.704607 m 1.322914,-5.546794 v -3.211551 m 0,6.053738 v 2.876115 m 1.32292,-5.718302 v -3.365802 m 0,6.207989 v 3.050662 m 1.32292,-5.892849 v -3.538928 m 0,6.381115 v 3.22521 m 1.32291,-6.067397 v -3.737211 m 0,6.579398 v 3.411704 M 105.706,48.02193 v -4.019663 m 0,6.86185 v 3.601514 m 1.32292,-6.443701 v -4.277297 m 0,7.119484 v 3.793147 m 1.32291,-6.635334 v -4.50782 m 0,7.350007 v 3.995439 m 1.32292,-6.837626 v -4.734677 m 0,7.576864 v 4.197731 m 1.32291,-7.039918 v -4.952209 m 1.32292,-0.210031 v 5.153965 m 1.32292,7.205276 V 42.64966 m 1.32291,0.472902 v 11.967675 m 1.32292,-0.400905 V 43.826539 m 1.32292,0.703976 v 9.310601 m 1.32291,-2.195364 v -5.972298"
       id="path9130" />
  </g>
  <path
     id="path9733"
     d="m 87.312499,114.56458 h -34.925 v 16.13959 l 34.925001,0"
     style="fill:none;stroke:#000000;stroke-width:0.264583px;stroke-linecap:butt;stroke-linejoin:miter;stroke-opacity:1" />
  <path
     transform="matrix(0.22441544,0,0,0.56726136,47.761307,66.615935)"
     d="m 45.376042,96.705204 -3.704167,-3.704166 3.704166,-3.704167 3.704167,3.704166 z"
     inkscape:randomized="0"
     inkscape:rounded="0"
     inkscape:flatsided="true"
     sodipodi:arg2="2.3561945"
     sodipodi:arg1="1.5707963"
     sodipodi:r2="2.6192415"
     sodipodi:r1="3.7041667"
     sodipodi:cy="93.001038"
     sodipodi:cx="45.376041"
     sodipodi:sides="4"
     id="path9735"
     style="opacity:0.3;fill:none;fill-rule:evenodd;stroke:#000000;stroke-width:0.796999"
     sodipodi:type="star" />
  <path
     sodipodi:type="star"
     style="opacity:0.3;fill:none;fill-rule:evenodd;stroke:#000000;stroke-width:0.796999"
     id="path9735-7"
     sodipodi:sides="4"
     sodipodi:cx="45.376041"
     sodipodi:cy="93.001038"
     sodipodi:r1="3.7041667"
     sodipodi:r2="2.6192415"
     sodipodi:arg1="1.5707963"
     sodipodi:arg2="2.3561945"
     inkscape:flatsided="true"
     inkscape:rounded="0"
     inkscape:randomized="0"
     d="m 45.376042,96.705204 -3.704167,-3.704166 3.704166,-3.704167 3.704167,3.704166 z"
     transform="matrix(0.22441544,0,0,0.56726135,47.760666,73.582647)" />
  <path
     sodipodi:type="star"
     style="opacity:0.3;fill:none;fill-rule:evenodd;stroke:#000000;stroke-width:0.796999"
     id="path9735-0"
     sodipodi:sides="4"
     sodipodi:cx="45.376041"
     sodipodi:cy="93.001038"
     sodipodi:r1="3.7041667"
     sodipodi:r2="2.6192415"
     sodipodi:arg1="1.5707963"
     sodipodi:arg2="2.3561945"
     inkscape:flatsided="true"
     inkscape:rounded="0"
     inkscape:randomized="0"
     d="m 45.376042,96.705204 -3.704167,-3.704166 3.704166,-3.704167 3.704167,3.704166 z"
     transform="matrix(0.22441544,0,0,0.56726135,54.37557,66.924291)" />
  <path
     transform="matrix(0.22441544,0,0,0.56726135,54.374927,73.891003)"
     d="m 45.376042,96.705204 -3.704167,-3.704166 3.704166,-3.704167 3.704167,3.704166 z"
     inkscape:randomized="0"
     inkscape:rounded="0"
     inkscape:flatsided="true"
     sodipodi:arg2="2.3561945"
     sodipodi:arg1="1.5707963"
     sodipodi:r2="2.6192415"
     sodipodi:r1="3.7041667"
     sodipodi:cy="93.001038"
     sodipodi:cx="45.376041"
     sodipodi:sides="4"
     id="path9735-7-8"
     style="opacity:0.3;fill:none;fill-rule:evenodd;stroke:#000000;stroke-width:0.796999"
     sodipodi:type="star" />
  <path
     sodipodi:type="star"
     style="opacity:0.3;fill:none;fill-rule:evenodd;stroke:#000000;stroke-width:0.796999"
     id="path9735-1"
     sodipodi:sides="4"
     sodipodi:cx="45.376041"
     sodipodi:cy="93.001038"
     sodipodi:r1="3.7041667"
     sodipodi:r2="2.6192415"
     sodipodi:arg1="1.5707963"
     sodipodi:arg2="2.3561945"
     inkscape:flatsided="true"
     inkscape:rounded="0"
     inkscape:randomized="0"
     d="m 45.376042,96.705204 -3.704167,-3.704166 3.704166,-3.704167 3.704167,3.704166 z"
     transform="matrix(0.22441544,0,0,0.56726135,60.460987,66.792)" />
  <path
     transform="matrix(0.22441544,0,0,0.56726135,60.460344,73.758712)"
     d="m 45.376042,96.705204 -3.704167,-3.704166 3.704166,-3.704167 3.704167,3.704166 z"
     inkscape:randomized="0"
     inkscape:rounded="0"
     inkscape:flatsided="true"
     sodipodi:arg2="2.3561945"
     sodipodi:arg1="1.5707963"
     sodipodi:r2="2.6192415"
     sodipodi:r1="3.7041667"
     sodipodi:cy="93.001038"
     sodipodi:cx="45.376041"
     sodipodi:sides="4"
     id="path9735-7-5"
     style="opacity:0.3;fill:none;fill-rule:evenodd;stroke:#000000;stroke-width:0.796999"
     sodipodi:type="star" />
  <path
     sodipodi:type="star"
     style="opacity:0.3;fill:none;fill-rule:evenodd;stroke:#000000;stroke-width:0.796999"
     id="path9735-73"
     sodipodi:sides="4"
     sodipodi:cx="45.376041"
     sodipodi:cy="93.001038"
     sodipodi:r1="3.7041667"
     sodipodi:r2="2.6192415"
     sodipodi:arg1="1.5707963"
     sodipodi:arg2="2.3561945"
     inkscape:flatsided="true"
     inkscape:rounded="0"
     inkscape:randomized="0"
     d="m 45.376042,96.705204 -3.704167,-3.704166 3.704166,-3.704167 3.704167,3.704166 z"
     transform="matrix(0.22441544,0,0,0.56726135,66.678696,66.659709)" />
  <path
     transform="matrix(0.22441544,0,0,0.56726135,66.678053,73.626421)"
     d="m 45.376042,96.705204 -3.704167,-3.704166 3.704166,-3.704167 3.704167,3.704166 z"
     inkscape:randomized="0"
     inkscape:rounded="0"
     inkscape:flatsided="true"
     sodipodi:arg2="2.3561945"
     sodipodi:arg1="1.5707963"
     sodipodi:r2="2.6192415"
     sodipodi:r1="3.7041667"
     sodipodi:cy="93.001038"
     sodipodi:cx="45.376041"
     sodipodi:sides="4"
     id="path9735-7-1"
     style="opacity:0.3;fill:none;fill-rule:evenodd;stroke:#000000;stroke-width:0.796999"
     sodipodi:type="star" />
  <path
     sodipodi:type="star"
     style="opacity:0.3;fill:none;fill-rule:evenodd;stroke:#000000;stroke-width:0.796999"
     id="path9735-5"
     sodipodi:sides="4"
     sodipodi:cx="45.376041"
     sodipodi:cy="93.001038"
     sodipodi:r1="3.7041667"
     sodipodi:r2="2.6192415"
     sodipodi:arg1="1.5707963"
     sodipodi:arg2="2.3561945"
     inkscape:flatsided="true"
     inkscape:rounded="0"
     inkscape:randomized="0"
     d="m 45.376042,96.705204 -3.704167,-3.704166 3.704166,-3.704167 3.704167,3.704166 z"
     transform="matrix(0.22441544,0,0,0.56726135,72.764113,66.792)" />
  <path
     transform="matrix(0.22441544,0,0,0.56726135,72.76347,73.758712)"
     d="m 45.376042,96.705204 -3.704167,-3.704166 3.704166,-3.704167 3.704167,3.704166 z"
     inkscape:randomized="0"
     inkscape:rounded="0"
     inkscape:flatsided="true"
     sodipodi:arg2="2.3561945"
     sodipodi:arg1="1.5707963"
     sodipodi:r2="2.6192415"
     sodipodi:r1="3.7041667"
     sodipodi:cy="93.001038"
     sodipodi:cx="45.376041"
     sodipodi:sides="4"
     id="path9735-7-3"
     style="opacity:0.3;fill:none;fill-rule:evenodd;stroke:#000000;stroke-width:0.796999"
     sodipodi:type="star" />
  <path
     id="path9803"
     d="m 87.312499,114.56458 0.132292,-2.91041 c 0,0 -4.233334,0.13229 -4.233334,-4.49792 0,-4.63021 1.984375,-7.01146 6.35,-7.276043 4.365625,-0.264583 6.482292,3.042713 6.746875,6.614583 0.264583,3.57188 -2.248958,5.29167 -3.96875,5.29167 -1.719791,0 -1.322916,2.77812 -1.322916,2.77812"
     style="fill:none;stroke:#000000;stroke-width:0.264583px;stroke-linecap:butt;stroke-linejoin:miter;stroke-opacity:1" />
  <path
     sodipodi:nodetypes="cccc"
     style="fill:none;stroke:#000000;stroke-width:0.264583px;stroke-linecap:butt;stroke-linejoin:miter;stroke-opacity:1"
     d="m 91.016666,114.56458 h 34.925004 v 16.13959 l -32.279171,0"
     id="path9733-3" />
  <path
     sodipodi:type="star"
     style="opacity:0.3;fill:none;fill-rule:evenodd;stroke:#000000;stroke-width:0.796999"
     id="path9735-59"
     sodipodi:sides="4"
     sodipodi:cx="45.376041"
     sodipodi:cy="93.001038"
     sodipodi:r1="3.7041667"
     sodipodi:r2="2.6192415"
     sodipodi:arg1="1.5707963"
     sodipodi:arg2="2.3561945"
     inkscape:flatsided="true"
     inkscape:rounded="0"
     inkscape:randomized="0"
     d="m 45.376042,96.705204 -3.704167,-3.704166 3.704166,-3.704167 3.704167,3.704166 z"
     transform="matrix(-0.22441544,0,0,0.56726135,130.56786,66.615934)" />
  <path
     transform="matrix(-0.22441544,0,0,0.56726135,130.5685,73.582646)"
     d="m 45.376042,96.705204 -3.704167,-3.704166 3.704166,-3.704167 3.704167,3.704166 z"
     inkscape:randomized="0"
     inkscape:rounded="0"
     inkscape:flatsided="true"
     sodipodi:arg2="2.3561945"
     sodipodi:arg1="1.5707963"
     sodipodi:r2="2.6192415"
     sodipodi:r1="3.7041667"
     sodipodi:cy="93.001038"
     sodipodi:cx="45.376041"
     sodipodi:sides="4"
     id="path9735-7-53"
     style="opacity:0.3;fill:none;fill-rule:evenodd;stroke:#000000;stroke-width:0.796999"
     sodipodi:type="star" />
  <path
     transform="matrix(-0.22441544,0,0,0.56726135,123.9536,66.92429)"
     d="m 45.376042,96.705204 -3.704167,-3.704166 3.704166,-3.704167 3.704167,3.704166 z"
     inkscape:randomized="0"
     inkscape:rounded="0"
     inkscape:flatsided="true"
     sodipodi:arg2="2.3561945"
     sodipodi:arg1="1.5707963"
     sodipodi:r2="2.6192415"
     sodipodi:r1="3.7041667"
     sodipodi:cy="93.001038"
     sodipodi:cx="45.376041"
     sodipodi:sides="4"
     id="path9735-0-2"
     style="opacity:0.3;fill:none;fill-rule:evenodd;stroke:#000000;stroke-width:0.796999"
     sodipodi:type="star" />
  <path
     sodipodi:type="star"
     style="opacity:0.3;fill:none;fill-rule:evenodd;stroke:#000000;stroke-width:0.796999"
     id="path9735-7-8-6"
     sodipodi:sides="4"
     sodipodi:cx="45.376041"
     sodipodi:cy="93.001038"
     sodipodi:r1="3.7041667"
     sodipodi:r2="2.6192415"
     sodipodi:arg1="1.5707963"
     sodipodi:arg2="2.3561945"
     inkscape:flatsided="true"
     inkscape:rounded="0"
     inkscape:randomized="0"
     d="m 45.376042,96.705204 -3.704167,-3.704166 3.704166,-3.704167 3.704167,3.704166 z"
     transform="matrix(-0.22441544,0,0,0.56726135,123.95424,73.891002)" />
  <path
     transform="matrix(-0.22441544,0,0,0.56726135,117.86818,66.791999)"
     d="m 45.376042,96.705204 -3.704167,-3.704166 3.704166,-3.704167 3.704167,3.704166 z"
     inkscape:randomized="0"
     inkscape:rounded="0"
     inkscape:flatsided="true"
     sodipodi:arg2="2.3561945"
     sodipodi:arg1="1.5707963"
     sodipodi:r2="2.6192415"
     sodipodi:r1="3.7041667"
     sodipodi:cy="93.001038"
     sodipodi:cx="45.376041"
     sodipodi:sides="4"
     id="path9735-1-9"
     style="opacity:0.3;fill:none;fill-rule:evenodd;stroke:#000000;stroke-width:0.796999"
     sodipodi:type="star" />
  <path
     sodipodi:type="star"
     style="opacity:0.3;fill:none;fill-rule:evenodd;stroke:#000000;stroke-width:0.796999"
     id="path9735-7-5-6"
     sodipodi:sides="4"
     sodipodi:cx="45.376041"
     sodipodi:cy="93.001038"
     sodipodi:r1="3.7041667"
     sodipodi:r2="2.6192415"
     sodipodi:arg1="1.5707963"
     sodipodi:arg2="2.3561945"
     inkscape:flatsided="true"
     inkscape:rounded="0"
     inkscape:randomized="0"
     d="m 45.376042,96.705204 -3.704167,-3.704166 3.704166,-3.704167 3.704167,3.704166 z"
     transform="matrix(-0.22441544,0,0,0.56726135,117.86882,73.758711)" />
  <path
     transform="matrix(-0.22441544,0,0,0.56726135,111.65047,66.65971)"
     d="m 45.376042,96.705204 -3.704167,-3.704166 3.704166,-3.704167 3.704167,3.704166 z"
     inkscape:randomized="0"
     inkscape:rounded="0"
     inkscape:flatsided="true"
     sodipodi:arg2="2.3561945"
     sodipodi:arg1="1.5707963"
     sodipodi:r2="2.6192415"
     sodipodi:r1="3.7041667"
     sodipodi:cy="93.001038"
     sodipodi:cx="45.376041"
     sodipodi:sides="4"
     id="path9735-73-1"
     style="opacity:0.3;fill:none;fill-rule:evenodd;stroke:#000000;stroke-width:0.796999"
     sodipodi:type="star" />
  <path
     sodipodi:type="star"
     style="opacity:0.3;fill:none;fill-rule:evenodd;stroke:#000000;stroke-width:0.796999"
     id="path9735-7-1-3"
     sodipodi:sides="4"
     sodipodi:cx="45.376041"
     sodipodi:cy="93.001038"
     sodipodi:r1="3.7041667"
     sodipodi:r2="2.6192415"
     sodipodi:arg1="1.5707963"
     sodipodi:arg2="2.3561945"
     inkscape:flatsided="true"
     inkscape:rounded="0"
     inkscape:randomized="0"
     d="m 45.376042,96.705204 -3.704167,-3.704166 3.704166,-3.704167 3.704167,3.704166 z"
     transform="matrix(-0.22441544,0,0,0.56726135,111.65112,73.626422)" />
  <path
     transform="matrix(-0.22441544,0,0,0.56726135,105.56506,66.791999)"
     d="m 45.376042,96.705204 -3.704167,-3.704166 3.704166,-3.704167 3.704167,3.704166 z"
     inkscape:randomized="0"
     inkscape:rounded="0"
     inkscape:flatsided="true"
     sodipodi:arg2="2.3561945"
     sodipodi:arg1="1.5707963"
     sodipodi:r2="2.6192415"
     sodipodi:r1="3.7041667"
     sodipodi:cy="93.001038"
     sodipodi:cx="45.376041"
     sodipodi:sides="4"
     id="path9735-5-6"
     style="opacity:0.3;fill:none;fill-rule:evenodd;stroke:#000000;stroke-width:0.796999"
     sodipodi:type="star" />
  <path
     sodipodi:type="star"
     style="opacity:0.3;fill:none;fill-rule:evenodd;stroke:#000000;stroke-width:0.796999"
     id="path9735-7-3-6"
     sodipodi:sides="4"
     sodipodi:cx="45.376041"
     sodipodi:cy="93.001038"
     sodipodi:r1="3.7041667"
     sodipodi:r2="2.6192415"
     sodipodi:arg1="1.5707963"
     sodipodi:arg2="2.3561945"
     inkscape:flatsided="true"
     inkscape:rounded="0"
     inkscape:randomized="0"
     d="m 45.376042,96.705204 -3.704167,-3.704166 3.704166,-3.704167 3.704167,3.704166 z"
     transform="matrix(-0.22441544,0,0,0.56726135,105.5657,73.758711)" />
  <path
     d="m 76.464582,167.08437 8.202084,-36.3802 1.587501,36.38021 m 4.894792,-0.1323 2.51354,-36.24791 7.540621,36.3802"
     style="fill:none;stroke:#000000;stroke-width:0.264583px;stroke-linecap:butt;stroke-linejoin:miter;stroke-opacity:1"
     id="path9850" />
  <path
     id="path9852"
     d="m 76.46458,167.08437 9.789586,1e-5"
     style="fill:none;stroke:#000000;stroke-width:0.264583px;stroke-linecap:butt;stroke-linejoin:miter;stroke-opacity:1" />
  <path
     id="path9854"
     d="m 91.148957,166.95208 10.054163,0.13229"
     style="fill:none;stroke:#000000;stroke-width:0.264583px;stroke-linecap:butt;stroke-linejoin:miter;stroke-opacity:1" />
  <path
     d="m 57.642286,119.37183 c 0.120243,0.30357 0.240487,0.60715 0.36073,0.91072 0.120097,-0.30357 0.240195,-0.60715 0.360292,-0.91072 -0.120097,-0.30394 -0.240195,-0.60788 -0.360292,-0.91183 -0.120243,0.30395 -0.240487,0.60789 -0.36073,0.91183 z"
     style="opacity:0.3;fill:none;fill-rule:evenodd;stroke:#000000;stroke-width:0.284365"
     id="path9735-05" />
  <path
     id="path9735-05-8"
     style="opacity:0.3;fill:none;fill-rule:evenodd;stroke:#000000;stroke-width:0.284366"
     d="m 57.641645,126.33854 c 0.120243,0.30357 0.240487,0.60715 0.36073,0.91072 0.120097,-0.30357 0.240195,-0.60715 0.360292,-0.91072 -0.120097,-0.30394 -0.240195,-0.60788 -0.360292,-0.91183 -0.120243,0.30395 -0.240487,0.60789 -0.36073,0.91183 z" />
  <path
     id="path9735-05-6"
     style="opacity:0.3;fill:none;fill-rule:evenodd;stroke:#000000;stroke-width:0.284366"
     d="m 64.197924,119.81236 c 0.120243,0.30357 0.240487,0.60715 0.36073,0.91072 0.120097,-0.30357 0.240195,-0.60715 0.360292,-0.91072 -0.120097,-0.30394 -0.240195,-0.60788 -0.360292,-0.91183 -0.120243,0.30395 -0.240487,0.60789 -0.36073,0.91183 z" />
  <path
     d="m 64.197283,126.77907 c 0.120243,0.30357 0.240487,0.60715 0.36073,0.91072 0.120097,-0.30357 0.240195,-0.60715 0.360292,-0.91072 -0.120097,-0.30394 -0.240195,-0.60788 -0.360292,-0.91183 -0.120243,0.30395 -0.240487,0.60789 -0.36073,0.91183 z"
     style="opacity:0.3;fill:none;fill-rule:evenodd;stroke:#000000;stroke-width:0.284366"
     id="path9735-05-8-2" />
  <path
     id="path9735-05-83"
     style="opacity:0.3;fill:none;fill-rule:evenodd;stroke:#000000;stroke-width:0.284366"
     d="m 70.225154,119.54789 c 0.120243,0.30357 0.240487,0.60715 0.36073,0.91072 0.120097,-0.30357 0.240195,-0.60715 0.360292,-0.91072 -0.120097,-0.30394 -0.240195,-0.60788 -0.360292,-0.91183 -0.120243,0.30395 -0.240487,0.60789 -0.36073,0.91183 z" />
  <path
     d="m 70.224513,126.5146 c 0.120243,0.30357 0.240487,0.60715 0.36073,0.91072 0.120097,-0.30357 0.240195,-0.60715 0.360292,-0.91072 -0.120097,-0.30394 -0.240195,-0.60788 -0.360292,-0.91183 -0.120243,0.30395 -0.240487,0.60789 -0.36073,0.91183 z"
     style="opacity:0.3;fill:none;fill-rule:evenodd;stroke:#000000;stroke-width:0.284366"
     id="path9735-05-8-0" />
  <path
     d="m 76.442863,119.4156 c 0.120243,0.30357 0.240487,0.60715 0.36073,0.91072 0.120097,-0.30357 0.240195,-0.60715 0.360292,-0.91072 -0.120097,-0.30394 -0.240195,-0.60788 -0.360292,-0.91183 -0.120243,0.30395 -0.240487,0.60789 -0.36073,0.91183 z"
     style="opacity:0.3;fill:none;fill-rule:evenodd;stroke:#000000;stroke-width:0.284366"
     id="path9735-05-83-7" />
  <path
     id="path9735-05-8-0-4"
     style="opacity:0.3;fill:none;fill-rule:evenodd;stroke:#000000;stroke-width:0.284366"
     d="m 76.442222,126.38231 c 0.120243,0.30357 0.240487,0.60715 0.36073,0.91072 0.120097,-0.30357 0.240195,-0.60715 0.360292,-0.91072 -0.120097,-0.30394 -0.240195,-0.60788 -0.360292,-0.91183 -0.120243,0.30395 -0.240487,0.60789 -0.36073,0.91183 z" />
  <path
     id="path9735-05-83-7-1"
     style="opacity:0.3;fill:none;fill-rule:evenodd;stroke:#000000;stroke-width:0.284366"
     d="m 82.52828,119.54789 c 0.120243,0.30357 0.240487,0.60715 0.36073,0.91072 0.120097,-0.30357 0.240195,-0.60715 0.360292,-0.91072 -0.120097,-0.30394 -0.240195,-0.60788 -0.360292,-0.91183 -0.120243,0.30395 -0.240487,0.60789 -0.36073,0.91183 z" />
  <path
     d="m 82.527639,126.5146 c 0.120243,0.30357 0.240487,0.60715 0.36073,0.91072 0.120097,-0.30357 0.240195,-0.60715 0.360292,-0.91072 -0.120097,-0.30394 -0.240195,-0.60788 -0.360292,-0.91183 -0.120243,0.30395 -0.240487,0.60789 -0.36073,0.91183 z"
     style="opacity:0.3;fill:none;fill-rule:evenodd;stroke:#000000;stroke-width:0.284366"
     id="path9735-05-8-0-4-1" />
  <path
     d="m 94.963061,119.54789 c 0.12024,0.30357 0.24049,0.60715 0.36073,0.91072 0.1201,-0.30357 0.2402,-0.60715 0.36029,-0.91072 -0.12009,-0.30394 -0.24019,-0.60788 -0.36029,-0.91183 -0.12024,0.30395 -0.24049,0.60789 -0.36073,0.91183 z"
     style="opacity:0.3;fill:none;fill-rule:evenodd;stroke:#000000;stroke-width:0.284366"
     id="path9735-05-83-7-1-2" />
  <path
     id="path9735-05-8-0-4-1-4"
     style="opacity:0.3;fill:none;fill-rule:evenodd;stroke:#000000;stroke-width:0.284366"
     d="m 94.962421,126.5146 c 0.12024,0.30357 0.24049,0.60715 0.36073,0.91072 0.1201,-0.30357 0.24019,-0.60715 0.36029,-0.91072 -0.1201,-0.30394 -0.24019,-0.60788 -0.36029,-0.91183 -0.12024,0.30395 -0.24049,0.60789 -0.36073,0.91183 z" />
  <path
     id="path9735-05-83-7-1-2-9"
     style="opacity:0.3;fill:none;fill-rule:evenodd;stroke:#000000;stroke-width:0.284366"
     d="m 101.04847,119.4156 c 0.12024,0.30357 0.24049,0.60715 0.36073,0.91072 0.1201,-0.30357 0.2402,-0.60715 0.36029,-0.91072 -0.12009,-0.30394 -0.24019,-0.60788 -0.36029,-0.91183 -0.12024,0.30395 -0.24049,0.60789 -0.36073,0.91183 z" />
  <path
     d="m 101.04783,126.38231 c 0.12024,0.30357 0.24049,0.60715 0.36073,0.91072 0.1201,-0.30357 0.24019,-0.60715 0.36029,-0.91072 -0.1201,-0.30394 -0.24019,-0.60788 -0.36029,-0.91183 -0.12024,0.30395 -0.24049,0.60789 -0.36073,0.91183 z"
     style="opacity:0.3;fill:none;fill-rule:evenodd;stroke:#000000;stroke-width:0.284366"
     id="path9735-05-8-0-4-1-4-9" />
  <path
     d="m 107.26618,119.54789 c 0.12024,0.30357 0.24049,0.60715 0.36073,0.91072 0.1201,-0.30357 0.2402,-0.60715 0.36029,-0.91072 -0.12009,-0.30394 -0.24019,-0.60788 -0.36029,-0.91183 -0.12024,0.30395 -0.24049,0.60789 -0.36073,0.91183 z"
     style="opacity:0.3;fill:none;fill-rule:evenodd;stroke:#000000;stroke-width:0.284366"
     id="path9735-05-83-7-1-2-9-0" />
  <path
     id="path9735-05-8-0-4-1-4-9-7"
     style="opacity:0.3;fill:none;fill-rule:evenodd;stroke:#000000;stroke-width:0.284366"
     d="m 107.26554,126.5146 c 0.12024,0.30357 0.24049,0.60715 0.36073,0.91072 0.1201,-0.30357 0.24019,-0.60715 0.36029,-0.91072 -0.1201,-0.30394 -0.24019,-0.60788 -0.36029,-0.91183 -0.12024,0.30395 -0.24049,0.60789 -0.36073,0.91183 z" />
  <path
     id="path9735-05-83-7-1-2-9-0-9"
     style="opacity:0.3;fill:none;fill-rule:evenodd;stroke:#000000;stroke-width:0.284366"
     d="m 113.3516,119.68018 c 0.12024,0.30357 0.24049,0.60715 0.36073,0.91072 0.1201,-0.30357 0.2402,-0.60715 0.36029,-0.91072 -0.12009,-0.30394 -0.24019,-0.60788 -0.36029,-0.91183 -0.12024,0.30395 -0.24049,0.60789 -0.36073,0.91183 z" />
  <path
     d="m 113.35096,126.64689 c 0.12024,0.30357 0.24049,0.60715 0.36073,0.91072 0.1201,-0.30357 0.24019,-0.60715 0.36029,-0.91072 -0.1201,-0.30394 -0.24019,-0.60788 -0.36029,-0.91183 -0.12024,0.30395 -0.24049,0.60789 -0.36073,0.91183 z"
     style="opacity:0.3;fill:none;fill-rule:evenodd;stroke:#000000;stroke-width:0.284366"
     id="path9735-05-8-0-4-1-4-9-7-4" />
  <path
     d="m 119.96586,119.37183 c 0.12024,0.30357 0.24049,0.60715 0.36073,0.91072 0.1201,-0.30357 0.2402,-0.60715 0.36029,-0.91072 -0.12009,-0.30394 -0.24019,-0.60788 -0.36029,-0.91183 -0.12024,0.30395 -0.24049,0.60789 -0.36073,0.91183 z"
     style="opacity:0.3;fill:none;fill-rule:evenodd;stroke:#000000;stroke-width:0.284366"
     id="path9735-05-83-7-1-2-9-0-9-6" />
  <path
     id="path9735-05-8-0-4-1-4-9-7-4-3"
     style="opacity:0.3;fill:none;fill-rule:evenodd;stroke:#000000;stroke-width:0.284366"
     d="m 119.96522,126.33854 c 0.12024,0.30357 0.24049,0.60715 0.36073,0.91072 0.1201,-0.30357 0.24019,-0.60715 0.36029,-0.91072 -0.1201,-0.30394 -0.24019,-0.60788 -0.36029,-0.91183 -0.12024,0.30395 -0.24049,0.60789 -0.36073,0.91183 z" />
  <path
     id="path10060"
     d="m 78.231266,167.00927 v -6.95389"
     style="fill:none;stroke:#000000;stroke-width:0.264583px;stroke-linecap:butt;stroke-linejoin:miter;stroke-opacity:1" />
  <path
     id="path10062"
     d="m 79.911791,151.59481 -0.405643,15.47241"
     style="fill:none;stroke:#000000;stroke-width:0.264583px;stroke-linecap:butt;stroke-linejoin:miter;stroke-opacity:1" />
  <path
     id="path10066"
     d="m 83.73643,135.13727 1.043083,31.9879"
     style="fill:none;stroke:#000000;stroke-width:0.264583px;stroke-linecap:butt;stroke-linejoin:miter;stroke-opacity:1" />
  <path
     id="path10068"
     d="m 94.167266,133.5147 -1.796421,33.49457"
     style="fill:none;stroke:#000000;stroke-width:0.264583px;stroke-linecap:butt;stroke-linejoin:miter;stroke-opacity:1" />
  <path
     id="path10070"
     d="m 99.266786,158.37485 -0.579493,8.80827"
     style="fill:none;stroke:#000000;stroke-width:0.264583px;stroke-linecap:butt;stroke-linejoin:miter;stroke-opacity:1" />
  <path
     id="path10072"
     d="m 98.513446,154.95586 -1.390777,11.87956"
     style="fill:none;stroke:#000000;stroke-width:0.264583px;stroke-linecap:butt;stroke-linejoin:miter;stroke-opacity:1" />
</svg>
