<?xml version="1.0" encoding="UTF-8" standalone="no"?>
<!-- Created with Inkscape (http://www.inkscape.org/) -->

<svg
   xmlns:dc="http://purl.org/dc/elements/1.1/"
   xmlns:cc="http://creativecommons.org/ns#"
   xmlns:rdf="http://www.w3.org/1999/02/22-rdf-syntax-ns#"
   xmlns:svg="http://www.w3.org/2000/svg"
   xmlns="http://www.w3.org/2000/svg"
   xmlns:sodipodi="http://sodipodi.sourceforge.net/DTD/sodipodi-0.dtd"
   xmlns:inkscape="http://www.inkscape.org/namespaces/inkscape"
   width="210mm"
   height="297mm"
   viewBox="0 0 210 297"
   version="1.1"
   id="svg31130"
   inkscape:version="1.0 (4035a4fb49, 2020-05-01)"
   sodipodi:docname="Kresling.svg">
  <defs
     id="defs31124" />
  <sodipodi:namedview
     id="base"
     pagecolor="#ffffff"
     bordercolor="#666666"
     borderopacity="1.0"
     inkscape:pageopacity="0.0"
     inkscape:pageshadow="2"
     inkscape:zoom="0.5"
     inkscape:cx="397.07294"
     inkscape:cy="873.70895"
     inkscape:document-units="mm"
     inkscape:current-layer="layer9"
     inkscape:document-rotation="0"
     showgrid="false"
     inkscape:window-width="1708"
     inkscape:window-height="894"
     inkscape:window-x="-9"
     inkscape:window-y="370"
     inkscape:window-maximized="1" />
  <metadata
     id="metadata31127">
    <rdf:RDF>
      <cc:Work
         rdf:about="">
        <dc:format>image/svg+xml</dc:format>
        <dc:type
           rdf:resource="http://purl.org/dc/dcmitype/StillImage" />
        <dc:title></dc:title>
      </cc:Work>
    </rdf:RDF>
  </metadata>
  <g
     inkscape:label="Layer 1"
     inkscape:groupmode="layer"
     id="layer1"
     style="display:inline">
    <path
       id="path32118"
       style="fill:none;stroke:#000000;stroke-width:0.261077px;stroke-linecap:butt;stroke-linejoin:miter;stroke-opacity:1"
       d="m 183.47278,111.83247 -9.04869,21.25811 m -93.306085,-21.26287 -9.048392,21.25605 m 9.048394,-21.25605 9.04707,-21.267698 102.354473,0.0068 -9.04677,21.265638 z m 98.608873,-21.255937 -9.04745,21.263807 m -3.74687,-21.263144 -9.04743,21.262524 m -3.74688,-21.261872 -9.04773,21.261872 m -3.74657,-21.261229 -9.04775,21.260549 m -3.74657,-21.259887 -9.04744,21.258597 m -3.74754,-21.258597 -9.04678,21.257937 M 102.96035,90.574792 93.913287,111.8321 m 76.765863,0.002 -9.04745,21.2638 m -3.74687,-21.26314 -9.04743,21.26253 m -3.74688,-21.26188 -9.04773,21.26188 m -3.74657,-21.26123 -9.04775,21.26055 m -3.74657,-21.25989 -9.04744,21.25859 m -3.74754,-21.25859 -9.046793,21.25793 m -3.74752,-21.25753 -9.04706,21.2573 m -21.843,21.25749 9.047066,-21.2677 102.354477,0.007 -9.04677,21.26564 z m -18.094505,42.52762 9.04706,-21.2677 102.354478,0.007 -9.04677,21.26564 z m -18.094518,42.52608 9.047066,-21.26769 102.35448,0.007 -9.04677,21.26564 z m -9.6e-4,-0.004 -9.047813,21.25863 m 27.143292,-63.78106 -9.048412,21.25473 m 27.143871,-63.77847 -9.0484,21.25605 m 107.656318,-42.51586 -9.04745,21.2638 m -3.74687,-21.26314 -9.04743,21.26253 m -3.74688,-21.26188 -9.04773,21.26188 m -3.74657,-21.26123 -9.04775,21.26054 m -3.74657,-21.25988 -9.04744,21.25859 m -3.747543,-21.25859 -9.046784,21.25793 m -3.74752,-21.25753 -9.04706,21.2573 m 89.559497,3.7e-4 -9.04677,21.26565 m -3.74686,-21.26447 -9.04745,21.2638 m -3.74687,-21.26314 -9.04743,21.26253 m -3.74688,-21.26187 -9.04773,21.26187 m -3.74657,-21.26123 -9.04775,21.26055 m -3.74657,-21.25989 -9.047447,21.25859 m -3.74754,-21.25859 -9.04678,21.25793 m -3.74752,-21.25753 -9.04706,21.25731 m 76.765867,0.002 -9.04745,21.26381 m -3.74687,-21.26314 -9.04743,21.26252 m -3.74688,-21.26187 -9.04773,21.26187 m -3.74657,-21.26123 -9.047753,21.26055 m -3.746574,-21.25989 -9.04744,21.2586 m -3.74754,-21.2586 -9.04678,21.25793 m -3.74752,-21.25753 -9.04706,21.25731 m 89.559477,-9.5e-4 -9.04677,21.26564 m -3.74686,-21.26447 -9.04745,21.26381 m -3.74687,-21.26314 -9.04743,21.26252 m -3.74688,-21.26187 -9.047733,21.26187 m -3.74657,-21.26123 -9.047754,21.26055 m -3.74657,-21.25989 -9.04744,21.2586 m -3.74754,-21.2586 -9.04678,21.25793 m -3.74751,-21.25753 -9.04707,21.25731 m 76.765867,0.002 -9.04745,21.2638 m -3.74687,-21.26314 -9.04743,21.26252 m -3.746883,-21.26187 -9.047734,21.26187 m -3.74657,-21.26123 -9.04775,21.26055 m -3.74657,-21.25988 -9.04744,21.25859 m -3.74754,-21.25859 -9.04678,21.25793 m -3.747513,-21.25754 -9.047067,21.25731 m 89.559777,0.002 -9.04677,21.26564 m -3.74686,-21.26446 -9.04745,21.2638 m -3.74687,-21.26314 -9.047433,21.26253 m -3.746884,-21.26188 -9.047725,21.26188 m -3.746579,-21.26124 -9.047742,21.26055 m -3.746577,-21.25988 -9.047435,21.25859 m -3.747537,-21.25859 -9.046785,21.25793 m -3.747513,-21.25753 -9.047067,21.2573 m 76.766167,0.002 -9.047453,21.2638 m -3.74687,-21.26314 -9.047436,21.26253 m -3.746883,-21.26188 -9.04772,21.26188 m -3.746579,-21.26174 -9.047742,21.26055 m -3.746577,-21.25989 -9.047435,21.25859 m -3.747537,-21.25859 -9.046785,21.25793 m -3.747513,-21.25753 -9.047067,21.2573 m -12.7943183,-5.1e-4 9.0470663,-21.2677 102.354479,0.007 -9.04677,21.26564 z" />
  </g>
  <g
     inkscape:groupmode="layer"
     id="layer8"
     inkscape:label="top_flip"
     sodipodi:insensitive="true">
    <path
       id="path32118-6"
       style="fill:none;stroke:#000000;stroke-width:0.261077px;stroke-linecap:butt;stroke-linejoin:miter;stroke-opacity:1"
       d="m 191.60489,260.67509 -9.04869,-21.2581 m -93.30608,21.26287 -9.0484,-21.25605 m 9.0484,21.25605 9.04707,21.26769 102.35447,-0.007 -9.04677,-21.26563 z m 98.60887,21.25593 -9.04745,-21.2638 m -3.74687,21.26314 -9.04743,-21.26253 m -3.74688,21.26188 -9.04773,-21.26188 m -3.74657,21.26123 -9.04775,-21.26055 m -3.74657,21.25989 -9.04744,-21.25859 m -3.74754,21.25859 -9.04678,-21.25794 m -3.74752,21.25754 -9.04706,-21.2573 m 76.76586,-0.002 -9.04745,-21.26381 m -3.74687,21.26316 -9.04743,-21.26253 m -3.74688,21.26188 -9.04773,-21.26188 m -3.74657,21.26123 -9.04775,-21.26055 m -3.74657,21.25989 -9.04744,-21.25859 m -3.74754,21.25859 -9.04679,-21.25793 m -3.74752,21.25765 -9.04706,-21.2573 m -21.843,-21.25749 9.04706,21.26769 102.35448,-0.007 -9.04677,-21.26563 z m -18.09451,-42.52775 9.04706,21.2677 102.35448,-0.007 -9.04677,-21.26564 z m -18.094517,-42.52608 9.047066,21.26769 102.354481,-0.007 -9.04677,-21.26564 z m -9.52e-4,0.004 -9.047813,-21.25863 m 27.143285,63.78105 -9.048414,-21.25473 m 27.143871,63.77847 -9.0484,-21.25604 m 107.65632,42.51585 -9.04745,-21.2638 m -3.74687,21.26315 -9.04743,-21.26254 m -3.74688,21.26188 -9.04773,-21.26188 m -3.74657,21.26123 -9.04775,-21.26053 m -3.74657,21.25987 -9.04744,-21.25859 m -3.74754,21.25859 -9.04679,-21.25792 m -3.74752,21.25753 -9.04706,-21.2573 m 89.5595,-2.7e-4 -9.04677,-21.26565 m -3.74686,21.26447 -9.04745,-21.2638 m -3.74687,21.26314 -9.04743,-21.26253 m -3.74688,21.26187 -9.04773,-21.26187 m -3.74657,21.26123 -9.04775,-21.26055 m -3.74657,21.25989 -9.04745,-21.25859 m -3.74754,21.25859 -9.04678,-21.25793 m -3.74752,21.25753 -9.04706,-21.25731 m 76.76587,-0.002 -9.04745,-21.26381 m -3.74687,21.26314 -9.04743,-21.26252 m -3.74688,21.26173 -9.04773,-21.26186 m -3.74657,21.26122 -9.04775,-21.26054 m -3.74658,21.25988 -9.04744,-21.25859 m -3.74754,21.25859 -9.04678,-21.25792 m -3.74752,21.25742 -9.04706,-21.2573 m 89.55948,10e-4 -9.04677,-21.26564 m -3.74686,21.26447 -9.04745,-21.26381 m -3.74687,21.26315 -9.04743,-21.26252 m -3.74688,21.26186 -9.04773,-21.26186 m -3.74657,21.26122 -9.04776,-21.26054 m -3.74656,21.25975 -9.04745,-21.2586 m -3.74753,21.2586 -9.04679,-21.25793 m -3.74751,21.25753 -9.047069,-21.25731 m 76.765869,-0.002 -9.04745,-21.2638 m -3.74687,21.26314 -9.04743,-21.26252 m -3.74688,21.26185 -9.04774,-21.26187 m -3.74656,21.26123 -9.04776,-21.26055 m -3.74657,21.26005 -9.04744,-21.25859 m -3.74754,21.25859 -9.04678,-21.25793 m -3.74751,21.25766 -9.047067,-21.25731 m 89.559777,-0.002 -9.04677,-21.26564 m -3.74686,21.26458 -9.04745,-21.2638 m -3.74687,21.26312 -9.04743,-21.26253 m -3.74689,21.26188 -9.04772,-21.26188 m -3.74658,21.26124 -9.04774,-21.26055 m -3.74658,21.25988 -9.04744,-21.25859 m -3.74753,21.25849 -9.046788,-21.25793 m -3.747513,21.25753 -9.047066,-21.2573 m 76.766167,-0.002 -9.04745,-21.2638 m -3.74687,21.26314 -9.04744,-21.26253 m -3.74688,21.26188 -9.04772,-21.26188 m -3.74658,21.26143 -9.04774,-21.26055 m -3.74658,21.25989 -9.047436,-21.25859 m -3.747537,21.25859 -9.046785,-21.25793 m -3.747512,21.25753 -9.047068,-21.2573 m -12.794318,5.3e-4 9.047067,21.2677 102.354479,-0.007 -9.04677,-21.26564 z" />
  </g>
  <g
     inkscape:groupmode="layer"
     id="layer9"
     inkscape:label="bottom_flip">
    <path
       d="M 38.711534,111.83932 16.869784,90.57767 m 34.63606,21.26104 -21.84176,-21.2617 m 34.63636,21.2617 -21.84204,-21.26252 m 34.63636,21.26133 -21.84204,-21.26068 M 89.88877,111.83623 68.047334,90.57571 M 102.68309,111.83557 80.841344,90.57442 M 115.47767,111.83533 93.6363,90.57764 M 128.27199,111.83483 106.4306,90.57804 M 47.758984,133.09935 25.917244,111.8377 m 34.63605,21.26103 -21.84174,-21.26169 m 34.63634,21.26169 -21.84204,-21.26251 m 34.63636,21.26133 -21.84204,-21.26068 M 98.93622,133.09626 77.094784,111.83574 M 111.73054,133.0956 89.88879,111.83445 m 34.63634,21.26091 -21.84137,-21.25769 m 34.63567,21.25719 -21.84137,-21.25679 m -58.671056,42.52316 -21.84174,-21.26165 m 34.63605,21.26104 -21.84174,-21.26171 m 34.63634,21.26171 -21.84204,-21.26252 M 95.19024,154.35943 73.348194,133.09875 m 34.636046,21.25939 -21.841436,-21.26052 m 34.635766,21.25986 -21.84175,-21.26115 m 34.63632,21.26091 -21.84136,-21.25769 m 34.63568,21.25719 -21.84138,-21.25679 m -58.671336,42.52332 -21.84174,-21.26165 m 34.63605,21.26104 -21.84175,-21.2617 m 34.636346,21.2617 -21.842036,-21.26252 m 34.636356,21.26133 -21.842036,-21.26068 m 34.636046,21.25939 -21.84144,-21.26052 m 34.63576,21.25986 -21.84175,-21.26115 m 34.63632,21.26091 -21.84136,-21.25769 m 34.63568,21.25719 -21.84139,-21.2568 M 74.903094,196.88807 53.061354,175.62641 M 87.6974,196.88746 65.855654,175.62576 M 100.492,196.88746 78.649964,175.62494 m 34.636346,21.26133 -21.84203,-21.26068 m 34.63604,21.25939 -21.84143,-21.26052 m 34.63575,21.25986 -21.84175,-21.26115 m 34.63633,21.26091 -21.84136,-21.25769 m 34.63568,21.25719 -21.84139,-21.25679 m -58.671626,42.52309 -21.84174,-21.26165 m 34.636046,21.26104 -21.841736,-21.2617 m 34.636326,21.2617 -21.84203,-21.26252 m 34.63636,21.26133 -21.84204,-21.26068 m 34.63604,21.25939 -21.84144,-21.26052 m 34.63577,21.25986 -21.84175,-21.26115 m 34.63633,21.26091 -21.84137,-21.25769 m 34.63569,21.25719 -21.84139,-21.25679 M 92.99795,239.40847 71.156214,218.14682 m 34.636046,21.26104 -21.841736,-21.2617 m 34.636336,21.2617 -21.84204,-21.26252 m 34.63636,21.26133 -21.84205,-21.26068 m 34.63605,21.25939 -21.84144,-21.26052 m 34.63577,21.25986 -21.84175,-21.26115 m 34.63633,21.26091 -21.84137,-21.25769 m 34.63569,21.25719 -21.84139,-21.25679 M 102.0454,260.67147 80.203664,239.40982 m 34.636046,21.26104 -21.84175,-21.2617 m 34.63635,21.2617 -21.84204,-21.26252 m 34.63636,21.26133 -21.84204,-21.26068 m 34.63605,21.25939 -21.84144,-21.26052 m 34.63576,21.25986 -21.84175,-21.26115 m 34.63633,21.26091 -21.84137,-21.25769 m 34.63569,21.25719 -21.84139,-21.25679 m -58.67164,42.52359 -21.84174,-21.26165 m 34.63605,21.26104 -21.84174,-21.2617 m 34.63634,21.2617 -21.84204,-21.26252 m 34.63636,21.26133 -21.84204,-21.26068 m 34.63605,21.25939 -21.84144,-21.26052 m 34.63576,21.25986 -21.84175,-21.26115 m 34.63633,21.26091 -21.84136,-21.25769 m 34.63568,21.25719 -21.84138,-21.25679"
       style="display:inline;fill:none;stroke:#000000;stroke-width:0.264583px;stroke-linecap:butt;stroke-linejoin:miter;stroke-opacity:1"
       id="path32138-60-6" />
  </g>
  <g
     inkscape:groupmode="layer"
     id="layer7"
     inkscape:label="bottom"
     style="display:none"
     sodipodi:insensitive="true">
    <path
       id="path32138-60"
       style="fill:none;stroke:#000000;stroke-width:0.264583px;stroke-linecap:butt;stroke-linejoin:miter;stroke-opacity:1"
       d="m 170.67945,111.83786 21.84174,-21.26165 m -34.63605,21.26104 21.84175,-21.2617 m -34.63635,21.2617 21.84204,-21.26252 m -34.63636,21.26133 21.84204,-21.26068 m -34.63605,21.25939 21.84144,-21.26052 m -34.63576,21.25986 21.84175,-21.26115 m -34.63633,21.26091 21.84137,-21.25769 m -34.63569,21.25719 21.84139,-21.25679 m 58.67162,42.52131 21.84174,-21.26165 m -34.63605,21.26104 21.84174,-21.2617 m -34.63634,21.2617 21.84204,-21.26252 m -34.63636,21.26133 21.84204,-21.26068 m -34.63605,21.25939 21.84144,-21.26052 m -34.63576,21.25986 21.84175,-21.26115 M 84.86585,133.0939 106.70722,111.83621 M 72.07154,133.0934 93.91292,111.83661 m 58.67106,42.52316 21.84174,-21.26165 m -34.63605,21.26104 21.84174,-21.2617 m -34.63634,21.2617 21.84204,-21.26252 m -34.63637,21.26133 21.84205,-21.26068 m -34.63605,21.25939 21.84144,-21.26052 m -34.63577,21.25986 21.84175,-21.26115 M 75.81783,154.35578 97.6592,133.09809 M 63.02351,154.35528 84.8649,133.09849 m 58.67134,42.52332 21.84174,-21.26165 m -34.63605,21.26104 21.84175,-21.2617 m -34.63635,21.2617 21.84204,-21.26252 m -34.63636,21.26133 21.84204,-21.26068 M 92.359,175.61872 114.20044,154.3582 m -34.63576,21.25986 21.84175,-21.26115 M 66.7701,175.61782 88.61147,154.36013 m -34.63569,21.25719 21.84139,-21.25679 m 58.67072,42.52608 21.84174,-21.26165 m -34.63605,21.26104 21.84175,-21.2617 m -34.63635,21.2617 21.84204,-21.26252 M 96.104663,196.88481 117.9467,175.62413 M 83.310653,196.88352 105.15209,175.623 m -34.635757,21.25986 21.84175,-21.26115 m -34.63633,21.26091 21.84137,-21.25769 m -34.63569,21.25719 21.84139,-21.25679 m 58.671637,42.52309 21.84174,-21.26165 m -34.63605,21.26104 21.84174,-21.2617 m -34.636337,21.2617 21.842037,-21.26252 m -34.636367,21.26133 21.842047,-21.26068 m -34.636047,21.25939 21.84144,-21.26052 m -34.63577,21.25986 21.84175,-21.26115 m -34.63633,21.26091 21.84137,-21.25769 m -34.63569,21.25719 21.84139,-21.25679 m 58.671647,42.51987 21.84174,-21.26165 m -34.63605,21.26104 21.84174,-21.2617 m -34.636337,21.2617 21.842037,-21.26252 m -34.636367,21.26133 21.84205,-21.26068 m -34.63605,21.25939 21.84144,-21.26052 m -34.63577,21.25986 21.84175,-21.26115 m -34.63633,21.26091 21.84137,-21.25769 m -34.63569,21.25719 21.84139,-21.25679 m 58.671627,42.52428 21.84174,-21.26165 M 94.551268,260.6694 116.39302,239.4077 m -34.636352,21.2617 21.842042,-21.26252 m -34.636362,21.26133 21.84204,-21.26068 m -34.63605,21.25939 21.84144,-21.26052 m -34.63576,21.25986 21.84175,-21.26115 m -34.63633,21.26091 21.84137,-21.25769 m -34.63569,21.25719 21.84139,-21.25679 m 58.671639,42.52359 21.841743,-21.26165 m -34.636051,21.26104 21.841741,-21.2617 m -34.636343,21.2617 21.84204,-21.26252 m -34.636361,21.26133 21.842042,-21.26068 m -34.636053,21.25939 21.841441,-21.26052 m -34.635762,21.25986 21.84175,-21.26115 M 21.532003,281.92833 43.373368,260.67064 M 8.7376846,281.92783 30.57907,260.67104" />
  </g>
</svg>
